<svg xmlns="http://www.w3.org/2000/svg" xmlns:xlink="http://www.w3.org/1999/xlink" width="1050" height="630" viewBox="0 0 1050 630">
  <defs>
    <linearGradient id="linear-gradient" x1="1.473" y1="1.474" x2="-0.412" y2="-0.479" gradientUnits="objectBoundingBox">
      <stop offset="0" stop-color="#fff"/>
      <stop offset="1" stop-color="#d9d3ff"/>
    </linearGradient>
    <clipPath id="clip-path">
      <rect id="Rectangle_26628" data-name="Rectangle 26628" width="379.476" height="392.786" transform="translate(0 0)" fill="none"/>
    </clipPath>
    <clipPath id="clip-google-my-business-video-verification">
      <rect width="1050" height="630"/>
    </clipPath>
  </defs>
  <g id="google-my-business-video-verification" clip-path="url(#clip-google-my-business-video-verification)">
    <rect width="1050" height="630" fill="#fff"/>
    <path id="Subtraction_10" data-name="Subtraction 10" d="M0,0H1050V630H0Z" fill="url(#linear-gradient)"/>
    <path id="Path_311" data-name="Path 311" d="M233.916,433.238c.207,106.89,109.118,201.462,276.807,260.05C420.814,633.411,367.16,557.98,367,475.929,366.61,280.316,670.2,121.144,1045.078,120.4q32.9-.059,65.023,1.5a1381.87,1381.87,0,0,0-198.052-13.615C537.175,109.032,233.563,254.51,233.916,433.238Z" transform="translate(-201.916 -85.289)" fill="#dcd7f8"/>
    <g id="Group_8" data-name="Group 8" transform="translate(327 136.214)">
      <g id="Group_7" data-name="Group 7" transform="translate(0 0)" clip-path="url(#clip-path)">
        <path id="Path_672" data-name="Path 672" d="M801.439,374.912H625a11.838,11.838,0,0,1-12.03-13.7L656.412,18.649a16.058,16.058,0,0,1,15.5-13.7L839.5,3c19.237,0,21.846,8.086,20.887,15.651L816.943,361.215a16.058,16.058,0,0,1-15.5,13.7" transform="translate(-481.083 -2.353)" fill="#caddff"/>
        <path id="Path_673" data-name="Path 673" d="M752.059,375.154H575.616a11.877,11.877,0,0,1-12.03-13.767L607.032,17.073a16.086,16.086,0,0,1,15.5-13.767H798.979a11.877,11.877,0,0,1,12.03,13.767L767.563,361.386a16.086,16.086,0,0,1-15.5,13.767" transform="translate(-442.32 -2.595)" fill="#fff"/>
        <path id="Path_674" data-name="Path 674" d="M610.66,459.029l41.483-328.761a3.714,3.714,0,0,1,3.579-3.178H833.114a2.742,2.742,0,0,1,2.777,3.178L794.408,459.029a3.714,3.714,0,0,1-3.579,3.178H613.437a2.742,2.742,0,0,1-2.777-3.178" transform="translate(-479.339 -99.763)" fill="#caddff"/>
        <path id="Path_675" data-name="Path 675" d="M1221.584,47.091a4.449,4.449,0,0,1-4.507-5.157,6.026,6.026,0,0,1,5.808-5.158,4.449,4.449,0,0,1,4.507,5.158,6.026,6.026,0,0,1-5.808,5.157" transform="translate(-955.356 -28.868)" fill="#caddff"/>
        <path id="Path_676" data-name="Path 676" d="M716.381,460.323H610.838a3.48,3.48,0,0,1-2.656-1.163,3.523,3.523,0,0,1-.827-2.816l41.484-328.761a4.449,4.449,0,0,1,4.285-3.8H830.515a3.48,3.48,0,0,1,2.656,1.163,3.522,3.522,0,0,1,.828,2.815L800.519,393.088a.711.711,0,1,1-1.412-.178l33.479-265.327a2.12,2.12,0,0,0-.483-1.7,2.076,2.076,0,0,0-1.589-.681H653.124a2.987,2.987,0,0,0-2.873,2.555L608.767,456.522a2.12,2.12,0,0,0,.483,1.7,2.075,2.075,0,0,0,1.588.681H716.381a.711.711,0,1,1,0,1.423" transform="translate(-476.74 -97.167)" fill="#3e4571"/>
        <path id="Path_677" data-name="Path 677" d="M675.092,373.267H573.015a12.734,12.734,0,0,1-9.726-4.235,12.923,12.923,0,0,1-3.01-10.333L603.725,14.387A16.837,16.837,0,0,1,619.935,0H796.378A12.733,12.733,0,0,1,806.1,4.231a12.923,12.923,0,0,1,3.01,10.333L777.638,264.009a.711.711,0,1,1-1.412-.178L807.7,14.387a11.519,11.519,0,0,0-2.666-9.214,11.329,11.329,0,0,0-8.658-3.753H619.935a15.375,15.375,0,0,0-14.8,13.145L561.691,358.878a11.519,11.519,0,0,0,2.665,9.214,11.331,11.331,0,0,0,8.659,3.753H675.092a.712.712,0,0,1,0,1.423" transform="translate(-439.719 0.003)" fill="#3e4571"/>
        <path id="Path_678" data-name="Path 678" d="M1700.444,1028.57a.712.712,0,0,1-1.34-.478" transform="translate(-1333.74 -807.037)" fill="#3e4571"/>
        <path id="Path_679" data-name="Path 679" d="M1746.141,635.163a.711.711,0,1,1,1.416-.146" transform="translate(-1370.694 -497.978)" fill="#3e4571"/>
        <path id="Path_680" data-name="Path 680" d="M971.5,367.488c3.272-25.164,26.507-45.565,51.9-45.565s43.32,20.4,40.048,45.565-26.507,45.565-51.9,45.565-43.321-20.4-40.049-45.565" transform="translate(-762.309 -252.705)" fill="#fff"/>
        <path id="Path_681" data-name="Path 681" d="M1020.006,671.274c7.231,7.7,17.708,12.428,29.921,12.428a52.164,52.164,0,0,0,33.153-12.428,102.049,102.049,0,0,0-30.943-4.568,114.032,114.032,0,0,0-32.131,4.568" transform="translate(-800.69 -523.354)" fill="#caddff"/>
        <path id="Path_682" data-name="Path 682" d="M1142.759,542.382h0a6.205,6.205,0,0,1-6.321-7.192l4.768-36.672h14.512l-4.769,36.672a8.481,8.481,0,0,1-8.191,7.192" transform="translate(-892.04 -391.329)" fill="#fff"/>
        <path id="Path_683" data-name="Path 683" d="M1057.668,419.484c.569-11.391,6.563-18.5-3.127-31.371-10.034-13.326-21.292-4.39-21.292-4.39s-7.514-6.925-20.441,7.554c-11.409,12.779-.414,24.229-5.645,32.185s-20.024,12.3-20.024,12.3,3.385,9.041,8.524,13.018h60.021s14.145-13.38,14.639-17.177c0,0-13.223-.723-12.654-12.114" transform="translate(-774.89 -298.914)" fill="#3e4571"/>
        <path id="Path_684" data-name="Path 684" d="M1020.006,671.274c7.231,7.7,17.708,12.428,29.921,12.428a52.164,52.164,0,0,0,33.153-12.428,102.049,102.049,0,0,0-30.943-4.568,114.032,114.032,0,0,0-32.131,4.568" transform="translate(-800.69 -523.354)" fill="#caddff"/>
        <path id="Path_685" data-name="Path 685" d="M1045.148,681.817c-11.967,0-22.778-4.493-30.44-12.653l-.791-.842,1.108-.327a114.119,114.119,0,0,1,32.333-4.6,102.264,102.264,0,0,1,31.16,4.6l1.234.395-.995.83a52.829,52.829,0,0,1-33.609,12.593m-28.587-12.785c7.333,7.337,17.436,11.362,28.587,11.362a51.232,51.232,0,0,0,31.676-11.432,101.568,101.568,0,0,0-29.466-4.141,112.886,112.886,0,0,0-30.8,4.211" transform="translate(-795.912 -520.758)" fill="#3e4571"/>
        <path id="Path_686" data-name="Path 686" d="M1136.064,443.02h-.5l-16.681,14.713-1.049,8.069a12.656,12.656,0,0,0,5.667,12.63l-1.715,13.193a6.205,6.205,0,0,0,6.321,7.192,8.481,8.481,0,0,0,8.191-7.192l1.683-12.945a17.241,17.241,0,0,0,9.408-12.878l1.121-8.626a12.214,12.214,0,0,0-12.442-14.156" transform="translate(-877.383 -347.764)" fill="#fff"/>
        <path id="Path_687" data-name="Path 687" d="M1140.16,627.681a6.915,6.915,0,0,1-7.027-8L1134.8,606.9a.711.711,0,1,1,1.411.184l-1.663,12.791a5.495,5.495,0,0,0,5.616,6.389,7.76,7.76,0,0,0,7.485-6.572l1.635-12.571a.711.711,0,1,1,1.411.183l-1.635,12.571a9.223,9.223,0,0,1-8.9,7.812" transform="translate(-889.441 -475.917)" fill="#3e4571"/>
        <path id="Path_688" data-name="Path 688" d="M1128.11,478.562a.711.711,0,0,1,0-1.423,16.562,16.562,0,0,0,15.977-14.026l1.122-8.626a11.822,11.822,0,0,0-2.552-9.263,11.69,11.69,0,0,0-8.585-4.076c-.112-.005-.224-.008-.337-.011l-16.81,14.608-.982,7.552a11.939,11.939,0,0,0,6.529,12.6.712.712,0,0,1-.615,1.283,13.341,13.341,0,0,1-7.324-14.07l1.017-7.82a.707.707,0,0,1,.239-.445l17.218-14.961a.71.71,0,0,1,.466-.175q.334,0,.661.014a12.9,12.9,0,0,1,12.487,14.945L1145.5,463.3a18.025,18.025,0,0,1-17.388,15.266" transform="translate(-874.792 -345.166)" fill="#3e4571"/>
        <path id="Path_689" data-name="Path 689" d="M1008.939,411.166c-12.492,0-23.614-4.829-31.315-13.6s-11.047-20.4-9.439-32.772a49.931,49.931,0,0,1,4.879-15.859.711.711,0,0,1,1.274.634,48.513,48.513,0,0,0-4.742,15.407c-1.555,11.96,1.676,23.2,9.1,31.649s18.169,13.112,30.247,13.112c25,0,47.969-20.162,51.192-44.945,1.555-11.96-1.675-23.2-9.1-31.649s-18.169-13.112-30.246-13.112c-13.606,0-27.153,5.983-37.17,16.417a.712.712,0,0,1-1.027-.986c10.284-10.711,24.206-16.854,38.2-16.854,12.492,0,23.613,4.829,31.315,13.6s11.048,20.4,9.439,32.771c-3.312,25.466-26.909,46.184-52.6,46.184" transform="translate(-759.702 -250.107)" fill="#3e4571"/>
        <path id="Path_690" data-name="Path 690" d="M1321.948,707.856h-25.139a2.371,2.371,0,1,1,0-4.743h23.056l2.907-22.359a2.371,2.371,0,0,1,4.7.611L1324.3,705.79a2.371,2.371,0,0,1-2.352,2.066" transform="translate(-1016.115 -532.76)" fill="#fff"/>
        <path id="Path_691" data-name="Path 691" d="M1369.906,281.744a2.376,2.376,0,0,1-2.354-2.678l3.377-25.975h-27.656a2.372,2.372,0,0,1,0-4.743h30.356a2.371,2.371,0,0,1,2.352,2.677l-3.725,28.652a2.373,2.373,0,0,1-2.349,2.066" transform="translate(-1052.589 -194.949)" fill="#fff"/>
        <path id="Path_692" data-name="Path 692" d="M919.56,278.927a2.376,2.376,0,0,1-2.355-2.678l3.36-25.836a2.371,2.371,0,0,1,2.352-2.066h31.777a2.372,2.372,0,0,1,0,4.743H925l-3.091,23.77a2.372,2.372,0,0,1-2.349,2.066" transform="translate(-719.977 -194.949)" fill="#fff"/>
        <path id="Path_693" data-name="Path 693" d="M894.81,687.275H864.455A2.371,2.371,0,0,1,862.1,684.6l3.909-30.062a2.372,2.372,0,0,1,4.7.612l-3.561,27.384H894.81a2.371,2.371,0,0,1,0,4.743" transform="translate(-676.723 -512.179)" fill="#fff"/>
        <path id="Path_694" data-name="Path 694" d="M964.553,925.113H841.708l3.054-23.485H967.607Z" transform="translate(-660.729 -707.765)" fill="#fff"/>
        <path id="Path_695" data-name="Path 695" d="M978.362,1091.3H882.078l2.393-18.407h96.284Z" transform="translate(-692.419 -842.206)" fill="#caddff"/>
        <path id="Path_696" data-name="Path 696" d="M1001.467,1034.264a8.379,8.379,0,0,1,2.531-2.95l12.623-11.737s1.641,5.656-.349,8.99a43.573,43.573,0,0,1,6.941.789s5.766-5.081,7.2-5.958,3.311-2.264,5.242-2.239a7.648,7.648,0,0,1,3.856,1.506l-11.089,14.054-20.164,5.549-4.735,32.5-14.165-11.389Z" transform="translate(-776.636 -800.352)" fill="#fff"/>
        <path id="Path_697" data-name="Path 697" d="M1000.93,1072.883a.71.71,0,0,1-.446-.157l-14.165-11.389a.711.711,0,0,1-.211-.828l12.1-29.116q.01-.023.021-.046a9.116,9.116,0,0,1,2.71-3.178l12.6-11.712a.712.712,0,0,1,1.168.323c.064.221,1.417,4.988.071,8.527a44.843,44.843,0,0,1,5.632.684c1.166-1.022,5.729-5,7.038-5.8.2-.12.4-.25.615-.385,1.381-.874,3.1-1.958,4.944-1.958h.062a8.311,8.311,0,0,1,4.281,1.654.712.712,0,0,1,.124,1l-11.089,14.054a.714.714,0,0,1-.37.246l-19.716,5.426-4.668,32.041a.71.71,0,0,1-.7.609m-13.3-12.321,12.778,10.275,4.555-31.269a.712.712,0,0,1,.515-.584l19.938-5.487,10.467-13.266a6.09,6.09,0,0,0-2.83-.959h-.042c-1.438,0-2.959.963-4.184,1.738-.22.139-.432.273-.635.4-1.135.693-5.513,4.483-7.1,5.884a.715.715,0,0,1-.62.162,43.3,43.3,0,0,0-6.815-.774.711.711,0,0,1-.587-1.075c1.294-2.169.888-5.516.545-7.268l-11.724,10.9c-.019.017-.038.033-.058.049a7.71,7.71,0,0,0-2.311,2.677Z" transform="translate(-774.038 -797.754)" fill="#3e4571"/>
        <path id="Path_698" data-name="Path 698" d="M231.6,1100.97l-17.977-6.605c-7.06,12.617-14.641,23.457-23.089,30.246a73.261,73.261,0,0,1-15.995,9.769,4.86,4.86,0,0,1-6.532-2.63,187.432,187.432,0,0,0-15.718-31.623c-6.2-9.953-16.5-18.121-25.054-22.362-13.284-6.59-28.731-9.773-43.449-6.836a115.759,115.759,0,0,0-47.823,22.22c-15.452,12.336-43.993,55.35-33.817,76.062,12.48,25.4,46.122,10.54,46.122,10.54s3.267,5.333-3.752,21.549c-8.527,19.7,3.829,22.335,3.829,22.335,28.717,14.039,104.792,10.9,98.306-4.776-6.944-16.783-7.06-38.058-7.06-38.058,9.6,9.492,22.7,8,22.7,8s7.575-.57,12.8-2.721C220.53,1171,231.6,1100.97,231.6,1100.97" transform="translate(0 -839.802)" fill="#50c1dd"/>
        <path id="Path_699" data-name="Path 699" d="M201.711,1337.246a.712.712,0,0,1-.672-.479c-9.507-27.509-5.092-49.73-5.046-49.951a.711.711,0,0,1,1.393.288c-.045.218-4.376,22.079,5,49.2a.711.711,0,0,1-.672.944" transform="translate(-153.017 -1009.686)" fill="#3e4571"/>
        <path id="Path_700" data-name="Path 700" d="M551.026,1404.564a.707.707,0,0,1-.5-.2c-14.863-14.515-25.209-48.227-25.642-49.656a.711.711,0,1,1,1.362-.413c.1.346,10.674,34.793,25.274,49.051a.711.711,0,0,1-.5,1.22" transform="translate(-412.005 -1062.704)" fill="#3e4571"/>
        <path id="Path_701" data-name="Path 701" d="M351.794,762.08a16.2,16.2,0,0,1,13.911,8.094c1.335,2.3,2.548,4.442,2.793,5.047a25.838,25.838,0,0,0,6.3,10.476,1.227,1.227,0,0,1,.122,1.631l-2.89,3.7a1.138,1.138,0,0,0-.226.9c.344,1.971,2.065,9.127,1.556,10.417-1.079,2.736-7.622,3.478-9.56,3.639a1.087,1.087,0,0,0-.865.553c-.628,1.134-2.287,4.385-3.648,12.491-2.074,12.354,9.7,14.275,7.3,15.485-16.731,8.445-47.54,6.526-45.753,3.012,1.469-2.889,18.374-10.367,19.947-30.687.981-12.671-16.764-13.712-3.977-37.832,2.971-5.606,9.405-6.95,14.988-6.924" transform="translate(-251.794 -598.221)" fill="#fff"/>
        <path id="Path_702" data-name="Path 702" d="M333,838.612c-7.664,0-13.7-.974-15.093-2.368a1.356,1.356,0,0,1-.313-1.642c.412-.81,1.57-1.717,3.323-3.09,5.37-4.205,15.366-12.033,16.549-27.331.339-4.376-1.718-7.332-3.9-10.462-3.9-5.6-8.319-11.957,0-27.648,2.533-4.779,7.878-7.3,15.46-7.3h.16a16.968,16.968,0,0,1,14.523,8.449,54.725,54.725,0,0,1,2.837,5.137c.075.186.162.428.267.719a24.072,24.072,0,0,0,5.874,9.519,1.943,1.943,0,0,1,.183,2.575l-2.89,3.7a.425.425,0,0,0-.086.338c.076.437.227,1.16.4,2,1.053,5.046,1.514,7.794,1.116,8.8-1.193,3.025-7.5,3.866-10.163,4.087a.376.376,0,0,0-.3.189c-1.79,3.232-2.929,8.453-3.569,12.264-1.349,8.034,3.4,11.352,5.945,13.135,1.085.759,1.74,1.217,1.689,1.938a1.129,1.129,0,0,1-.713.931c-8.8,4.44-21.4,6.065-31.3,6.065m-14.116-3.405a2.848,2.848,0,0,0,1.213.639c6.014,2.1,29.045,2.572,43.236-4.405-.229-.18-.547-.4-.823-.6-2.607-1.823-8.031-5.615-6.533-14.536.958-5.7,2.212-9.982,3.727-12.718a1.8,1.8,0,0,1,1.429-.918c3.672-.305,8.22-1.324,8.957-3.191.312-.816-.737-5.844-1.184-7.991-.177-.849-.33-1.583-.41-2.043a1.856,1.856,0,0,1,.366-1.459l2.89-3.7a.514.514,0,0,0-.063-.687,25.4,25.4,0,0,1-6.212-10.05c-.1-.269-.177-.493-.246-.665-.112-.276-.618-1.286-2.749-4.958a15.539,15.539,0,0,0-13.3-7.74h-.149c-4.935,0-11.346,1.149-14.207,6.546-7.912,14.925-3.935,20.641-.088,26.169,2.225,3.2,4.525,6.5,4.147,11.385-1.232,15.922-11.549,24-17.091,28.341a15.759,15.759,0,0,0-2.91,2.574" transform="translate(-249.19 -595.622)" fill="#3e4571"/>
        <path id="Path_703" data-name="Path 703" d="M374.193,756.962l6.693-8.377a9,9,0,0,0-2.519-13.4,42.616,42.616,0,0,0-4.594-2.315c-17.19-7.4-36.885,4.813-36.9,23.528-.008,7.659,5.114,16.54,16,24.432,0,0,7.648-6.031,7.551-12.556,0,0-5.55-6.585,2.271-9.918a5.6,5.6,0,0,1,4.666.132,5.591,5.591,0,0,0,6.838-1.526" transform="translate(-264.437 -573.57)" fill="#3e4571"/>
        <path id="Path_704" data-name="Path 704" d="M436.529,900.935c-2.225,0-5.065-.949-7.176-4.942a.712.712,0,1,1,1.258-.665c3.333,6.3,8.565,3.68,8.786,3.566a.711.711,0,0,1,.661,1.26,8.423,8.423,0,0,1-3.529.782" transform="translate(-336.971 -702.521)" fill="#3e4571"/>
        <path id="Path_705" data-name="Path 705" d="M81.953,706.43s-5.805-20.08-26.982-16.3c-13.222,2.36-24.769,11.244-31.113,25.746C11.583,743.936,22.7,770.635,2.7,795A8.622,8.622,0,0,0,8.972,809.1c13.441.465,31.578-2.783,44.173-20.09,10.32-14.181,3.834-79.368,26.54-78.388Z" transform="translate(-0.562 -541.369)" fill="#3e4571"/>
        <path id="Path_706" data-name="Path 706" d="M1269.665,1337.548a57.062,57.062,0,1,1-53.492-60.421,57.061,57.061,0,0,1,53.492,60.421" transform="translate(-907.166 -1002.443)" fill="#3e4571"/>
        <path id="Path_707" data-name="Path 707" d="M1284.614,1436.7a188.432,188.432,0,0,1,15.469-19.767c8.717-9.717,13.922-13.45,15.315-14.429a74.164,74.164,0,0,1,13.714-7.519,1.893,1.893,0,0,1,.564-.129,2.8,2.8,0,0,1,2.045.932c-.433.432-1.01,1.006-1.709,1.688-1.313,1.281-2.3,2.206-2.436,2.339-7.758,7.325-14.308,14.984-14.308,14.984a198.5,198.5,0,0,0-13.548,18.107c-.741,1.139-1.418,2.236-1.418,2.236-1.424,2.337-2.233,3.957-8.238,13.829-2.406,3.956-4.411,7.27-5.765,9.336h-1.387a76.888,76.888,0,0,1-6.2-12.243s-3.4-8.424-6.615-12.5a5.257,5.257,0,0,0-1.67-1.442,6,6,0,0,0-4.09-.431,5.906,5.906,0,0,1,.484-1.74c1.252-2.75,4.661-4.394,7.526-4.379,5.367.027,9.122,5.878,10.818,8.519a23.566,23.566,0,0,1,1.452,2.614" transform="translate(-992.484 -1094.942)" fill="#fff"/>
      </g>
    </g>
    <path id="Path_708" data-name="Path 708" d="M1070.181,757.8a45.889,45.889,0,0,1-.589-64.592,45.166,45.166,0,0,1,64.169-.593,45.888,45.888,0,0,1,.589,64.593,45.166,45.166,0,0,1-64.169.593" transform="translate(-618.985 -578.531)" fill="#fff" stroke="#3e4571" stroke-width="2"/>
    <path id="Path_709" data-name="Path 709" d="M2.857,30.1.01,2.135A1.936,1.936,0,0,1,2.612.124L31.977,11.067a1.935,1.935,0,0,1,.368,3.442L5.825,31.535A1.933,1.933,0,0,1,2.857,30.1" transform="translate(474.443 129.758) rotate(9)" fill="#3e4571"/>
  </g>
</svg>
